<?xml version="1.0" encoding="utf-8"?>
<!-- Generator: Adobe Illustrator 19.1.0, SVG Export Plug-In . SVG Version: 6.00 Build 0)  -->
<svg version="1.1" id="Layer_1" xmlns="http://www.w3.org/2000/svg" xmlns:xlink="http://www.w3.org/1999/xlink" x="0px" y="0px"
	 viewBox="0 0 612 611.6" enable-background="new 0 0 612 611.6" xml:space="preserve">
<path class="logo" d="M517.1,515.2c53.3-53.8,86.3-127.8,86.3-209.4c0,0,0,0,0,0l0,0c0-81.6-33-155.6-86.4-209.4
	c-0.1-0.2-0.3-0.5-0.4-0.7c-0.2-0.2-0.4-0.3-0.6-0.4C462.1,41.5,387.8,8.2,305.8,8.2c-82,0-156.3,33.3-210.2,87.1
	c-0.3,0.2-0.6,0.4-0.8,0.7c-0.3,0.2-0.6,0.5-0.8,0.9C41,150.7,8.2,224.5,8.2,305.8c0,164.1,133.5,297.6,297.6,297.6
	c81.9,0,156.2-33.3,210.1-87c0.2-0.1,0.4-0.2,0.5-0.4c0.1-0.1,0.1-0.1,0.2-0.2C516.8,515.6,516.9,515.4,517.1,515.2z M471.3,468.3
	l-78.1-78.1l77.2-77.2c19.8,20.4,32,48.2,32,78.8c0,24.2-7.7,46.6-20.6,65.1C478.4,460.8,474.9,464.6,471.3,468.3z M303.1,296.2
	c-17-19.8-27.3-45.5-27.3-73.6c0-28.1,10.3-53.8,27.3-73.6V296.2z M308.5,148.9c17,19.8,27.3,45.5,27.3,73.6
	c0,28.1-10.3,53.8-27.3,73.6V148.9z M389.1,273c-25.5,0-49.1,8.1-68.4,21.8l67.8-67.8l64.9,64.9C434.8,280,412.7,273,389.1,273z
	 M461.1,304.4H317c19.6-16.2,44.7-25.9,72.1-25.9C416.4,278.5,441.5,288.2,461.1,304.4z M324.6,283.1c10.6-17.8,16.7-38.5,16.7-60.6
	c0-20.8-5.4-40.4-14.8-57.4l58.1,58.1L324.6,283.1z M270.3,222.5c0,23,6.6,44.5,18,62.7l-61.6-61.6l58.5-58.5
	C275.7,182.2,270.3,201.7,270.3,222.5z M288.3,293c-18.8-12.6-41.5-19.9-65.8-19.9c-23.7,0-45.7,7-64.2,18.9l64.5-64.5L288.3,293z
	 M294.6,304.4H150.5c19.6-16.2,44.7-25.9,72.1-25.9C249.9,278.5,275,288.2,294.6,304.4z M294.6,309.9
	c-19.6,16.2-44.7,25.9-72.1,25.9c-27.4,0-52.5-9.7-72.1-25.9H294.6z M308.5,318.2c17,19.8,27.3,45.5,27.3,73.6
	c0,28.1-10.3,53.8-27.3,73.6V318.2z M303.1,465.4c-17-19.8-27.3-45.5-27.3-73.6c0-28.1,10.3-53.8,27.3-73.6V465.4z M461.1,309.9
	c-19.6,16.2-44.7,25.9-72.1,25.9c-27.4,0-52.5-9.7-72.1-25.9H461.1z M392.3,223.2l78.8-78.8c19.4,20.3,31.3,47.9,31.3,78.1
	c0,30.6-12.2,58.4-32,78.8L392.3,223.2z M388.4,219.3l-78.1-78.1c20.4-19.8,48.2-32,78.8-32c30.3,0,57.8,11.9,78.1,31.3L388.4,219.3
	z M222.8,219.8L144,141c20.4-19.6,48.1-31.7,78.5-31.7c30.6,0,58.4,12.2,78.8,32L222.8,219.8z M218.9,223.6l-77.7,77.7
	c-19.8-20.4-32-48.2-32-78.8c0-30.1,11.8-57.4,30.9-77.7L218.9,223.6z M222.5,341.3c22.1,0,42.8-6.1,60.6-16.7l-61.3,61.3
	l-63.5-63.5C176.8,334.3,198.9,341.3,222.5,341.3z M292.1,323.4c-13.7,19.4-21.8,43-21.8,68.4c0,20.8,5.4,40.4,14.8,57.4l-59.4-59.4
	L292.1,323.4z M341.3,391.8c0-24.3-7.3-46.9-19.9-65.8l64.1,64.1l-59,59C335.9,432.2,341.3,412.6,341.3,391.8z M326.4,323.3
	c18.2,11.4,39.7,18,62.7,18c23.7,0,45.7-7,64.2-18.9l-64,64L326.4,323.3z M507.8,391.8c0-31.7-12.5-60.6-32.9-81.9h62.8
	c-0.8,44.4-14.1,85.7-36.5,120.7C505.5,418.4,507.8,405.4,507.8,391.8z M475,304.4c20.3-21.3,32.9-50.2,32.9-81.9
	c0-16.1-3.2-31.5-9.1-45.5c24.4,36.5,38.8,80.3,39.1,127.4H475z M389.1,103.8c-31.1,0-59.4,12-80.5,31.6V73.8
	c46.6,0.5,89.9,14.8,126,39C420.5,107,405.2,103.8,389.1,103.8z M303.1,135.3c-21.2-19.6-49.5-31.6-80.5-31.6
	c-16.1,0-31.5,3.2-45.5,9.1c36.2-24.2,79.5-38.5,126-39V135.3z M103.8,222.5c0,31.7,12.5,60.6,32.9,81.9H73.8
	c0.3-47.1,14.6-90.9,39.1-127.4C107,191.1,103.8,206.4,103.8,222.5z M136.6,309.9c-20.4,21.3-32.9,50.2-32.9,81.9
	c0,13.6,2.3,26.6,6.5,38.8c-22.4-35-35.7-76.4-36.5-120.7H136.6z M109.2,391.8c0-30.6,12.2-58.4,32-78.8l76.8,76.8l-78.1,78.1
	c-3.5-3.5-6.8-7.2-10-11C116.9,438.4,109.2,416,109.2,391.8z M143.7,471.7l78.1-78.1l79.5,79.5c-20.4,19.8-48.2,32-78.8,32
	c-22.9,0-44.3-6.9-62.1-18.6C154.6,481.8,149.1,476.9,143.7,471.7z M222.5,510.6c31.1,0,59.4-12,80.5-31.6v58.8
	c-42.2-0.5-81.8-12.3-115.8-32.6C198.4,508.7,210.3,510.6,222.5,510.6z M308.5,479c21.2,19.6,49.5,31.6,80.5,31.6
	c12.3,0,24.1-1.9,35.2-5.3c-34,20.3-73.5,32.1-115.8,32.6V479z M389.1,505.1c-30.6,0-58.4-12.2-78.8-32l79.1-79.1l78.1,78.1
	c-5.2,5-10.6,9.8-16.2,14.4C433.4,498.2,412,505.1,389.1,505.1z M485.7,460.8c35.1-40.7,56.6-93.3,57.6-150.9H596l-82.8,200.3
	l-37.4-37.4C479.4,469,482.7,465,485.7,460.8z M543.3,304.4c-0.4-64-26.1-122-67.7-164.6l37.9-37.9l82.3,202.4H543.3z M471.7,136
	C429.5,94.7,372,69,308.5,68.3V15l200.8,83.4L471.7,136z M303.1,68.3c-63.6,0.7-121.3,26.6-163.6,68.1l-37.8-37.8L303.1,15V68.3z
	 M135.6,140.3c-41.4,42.5-67,100.4-67.3,164.2H15.8l81.9-202.1L135.6,140.3z M68.3,309.9c1,57.6,22.5,110.2,57.6,150.9
	c2.9,4.1,6.1,8,9.5,11.6L99.8,508L17,309.9H68.3z M139.2,476.3c5.4,5.4,11.4,10.2,17.8,14.5c40.1,32.3,90.9,51.9,146.1,52.5v53.2
	l-199.5-84.7L139.2,476.3z M308.5,543.3c55.3-0.6,106-20.2,146.1-52.5c6.2-4.1,12-8.9,17.4-14.1l36.8,36.8l-200.2,83.1V543.3z
	 M597.6,320.4c-3.4,69.2-31.1,132.2-74.6,180.6L597.6,320.4z M522.8,110.4c44.4,49.2,72.2,113.5,74.9,184.2L522.8,110.4z M320.4,14
	c69.6,3.4,132.9,31.4,181.4,75.3L320.4,14z M109.8,89.3c48.5-44,111.8-71.9,181.4-75.3L109.8,89.3z M13.9,294.6
	c2.7-70.4,30.4-134.5,74.4-183.6L13.9,294.6z M92.8,505.6c-46.8-49.8-76.3-116-79-188.9L92.8,505.6z M291.6,597.6
	c-71.5-3.4-136.4-32.7-185.4-78.7L291.6,597.6z M501.8,522.3c-48.5,44-111.8,71.9-181.4,75.3L501.8,522.3z"/>
</svg>
